<?xml version="1.0" standalone="no"?>
<!DOCTYPE svg PUBLIC "-//W3C//DTD SVG 20010904//EN"
 "http://www.w3.org/TR/2001/REC-SVG-20010904/DTD/svg10.dtd">
<svg version="1.0" xmlns="http://www.w3.org/2000/svg"
 width="1024.000000pt" height="1024.000000pt" viewBox="0 0 1024.000000 1024.000000"
 preserveAspectRatio="xMidYMid meet">

<g transform="translate(0.000000,1024.000000) scale(0.100000,-0.100000)"
fill="#000000" stroke="none">
<path d="M4742 10090 c-229 -32 -446 -177 -539 -361 l-22 -43 -35 74 c-36 76
-65 195 -67 272 l-2 43 -7 -50 c-6 -47 1 -144 16 -208 l7 -28 -48 32 c-80 54
-171 80 -283 80 -153 0 -250 -33 -426 -144 -146 -91 -200 -112 -291 -112 -69
0 -86 4 -127 27 -50 30 -95 103 -84 136 12 35 -26 -22 -55 -83 -38 -79 -40
-165 -6 -216 29 -44 81 -78 129 -86 l39 -6 -59 -29 c-156 -78 -272 -228 -318
-412 -39 -155 -171 -213 -273 -121 -43 39 -61 87 -62 166 l-1 54 -25 -75 c-56
-174 -18 -328 95 -377 l34 -14 -71 -74 c-49 -51 -82 -98 -108 -153 -30 -61
-50 -88 -93 -123 -30 -24 -144 -134 -255 -244 -378 -377 -661 -771 -896 -1249
-243 -493 -384 -976 -456 -1566 -25 -205 -25 -801 0 -1011 68 -566 204 -1043
440 -1534 673 -1402 2020 -2391 3547 -2604 295 -41 364 -45 680 -45 316 0 385
4 680 45 1006 141 1966 630 2679 1365 741 764 1180 1693 1307 2764 24 210 30
675 10 900 -86 979 -433 1838 -1053 2600 -205 252 -540 574 -791 759 -72 53
-73 55 -67 89 3 19 3 68 -1 109 l-6 74 -24 -57 c-44 -110 -35 -110 -233 12
-112 70 -177 117 -186 134 -26 50 -95 130 -145 167 -27 20 -48 39 -46 41 3 2
33 -10 68 -27 78 -37 164 -113 203 -180 17 -28 32 -51 35 -51 3 0 2 44 -1 98
-23 329 -295 586 -645 609 -52 3 -94 6 -94 7 0 1 14 28 30 60 17 32 30 74 30
93 0 71 -53 139 -143 184 l-42 21 25 -26 c54 -59 14 -146 -68 -146 -53 1 -110
29 -221 111 -168 125 -282 165 -441 156 -52 -3 -117 -13 -145 -21 -50 -16 -50
-16 -69 10 -28 38 -126 100 -194 123 -37 13 -87 21 -126 21 l-64 0 74 -74 c94
-94 99 -120 12 -70 -86 49 -211 107 -283 132 -136 46 -324 68 -443 52z m-664
-1186 c23 -14 40 -29 37 -34 -3 -5 0 -12 6 -16 8 -5 9 -3 4 6 -5 9 -2 10 12 6
12 -4 38 4 67 20 40 22 60 27 117 26 38 0 92 -8 119 -17 57 -19 146 -94 174
-148 19 -33 19 -36 -2 -114 -44 -160 -39 -301 13 -404 33 -63 122 -143 191
-168 80 -31 186 -44 269 -34 l70 9 -31 16 c-17 10 -52 40 -78 69 -54 60 -87
151 -85 238 1 31 4 47 6 36 16 -63 141 -185 275 -269 121 -75 366 -145 507
-146 l74 0 -47 41 c-42 37 -106 129 -106 153 0 5 10 -2 23 -15 63 -69 251
-178 334 -195 24 -5 32 -15 57 -82 37 -101 96 -220 138 -278 18 -25 48 -67 66
-92 l32 -47 0 -142 c0 -356 -63 -853 -145 -1138 -33 -116 -76 -234 -86 -241
-5 -3 -9 19 -10 48 -1 99 -12 99 -48 0 -37 -103 -104 -246 -120 -256 -7 -5
-11 7 -11 33 0 23 -3 41 -7 41 -5 0 -43 -62 -85 -138 -65 -114 -78 -132 -79
-107 0 17 -4 41 -8 55 -6 22 -14 14 -94 -92 -48 -64 -90 -119 -95 -122 -4 -3
0 27 10 66 39 152 40 345 4 446 -37 102 -131 170 -271 193 -91 15 -381 6 -655
-21 -212 -21 -283 -24 -192 -9 72 12 149 53 172 92 26 42 26 107 0 138 l-19
24 -1 -58 c0 -52 -2 -57 -15 -43 -28 28 -125 38 -370 40 -132 0 -259 -2 -281
-6 -42 -8 -42 -8 -58 32 -33 83 -22 125 73 273 68 108 118 222 152 347 20 71
23 110 24 235 0 133 -3 161 -28 250 -15 55 -39 124 -54 154 -20 41 -27 77 -33
155 -8 97 -30 190 -52 211 -7 7 -9 2 -4 -15 4 -14 9 -38 12 -55 5 -26 3 -25
-16 13 -32 61 -103 119 -168 138 -108 32 -307 16 -456 -36 -198 -68 -316 -213
-339 -417 l-5 -42 33 26 c18 15 41 28 52 29 10 1 50 9 88 18 42 9 117 16 185
16 268 0 510 -96 668 -264 33 -36 62 -60 65 -53 6 19 11 -51 9 -139 -3 -139
-70 -359 -150 -494 -21 -36 -44 -64 -51 -62 -7 1 -10 -2 -7 -7 4 -5 -7 -31
-24 -58 -56 -88 -63 -155 -26 -245 30 -72 74 -128 134 -168 l47 -32 -35 6
c-186 31 -405 37 -464 12 -21 -9 -43 -13 -50 -9 -6 3 -8 3 -4 -2 4 -4 -6 -23
-22 -42 -87 -99 -129 -293 -101 -466 5 -27 4 -44 -1 -39 -5 5 -40 69 -78 143
-41 79 -71 128 -74 119 -3 -8 -7 -35 -8 -60 l-3 -45 -23 50 c-13 28 -40 96
-60 152 -20 57 -40 103 -43 103 -4 0 -12 -21 -19 -47 l-12 -48 -14 40 c-23 64
-53 223 -60 320 -8 118 14 1373 26 1490 16 147 13 141 75 153 68 14 194 74
243 115 32 27 34 27 13 4 -58 -65 30 0 121 89 110 108 142 185 202 480 37 182
141 287 328 328 74 17 98 14 156 -20z m2940 -1696 c26 -12 46 -28 45 -34 -1
-6 15 -26 35 -45 l37 -34 -34 38 c-19 20 -30 37 -24 37 18 0 81 -80 113 -143
67 -135 77 -315 26 -490 -36 -120 -126 -295 -146 -282 -4 2 -16 -5 -26 -18
l-19 -22 23 19 c43 37 21 -2 -38 -67 -180 -196 -405 -281 -551 -207 -60 31
-61 32 -34 175 13 72 45 263 70 425 26 162 53 322 61 355 17 68 74 181 91 178
6 -1 21 10 34 25 l24 27 -27 -24 c-16 -14 -28 -20 -28 -13 0 23 114 102 180
123 42 14 137 3 188 -23z m-4193 -1048 c10 -11 16 -20 13 -20 -3 0 -13 9 -23
20 -10 11 -16 20 -13 20 3 0 13 -9 23 -20z m2484 -211 c46 -30 56 -66 55 -209
0 -119 -3 -145 -27 -215 -65 -194 -224 -381 -418 -492 -101 -58 -194 -80 -267
-65 -93 19 -162 90 -162 165 0 20 3 37 8 37 17 0 117 97 144 139 31 49 36 82
14 100 -11 9 -35 8 -103 -6 -132 -26 -391 -23 -497 5 -43 12 -82 19 -87 16
-31 -19 16 -107 100 -189 55 -53 60 -69 35 -118 -38 -74 -101 -112 -175 -105
-133 13 -336 215 -414 413 -74 188 -70 430 7 479 13 8 40 6 105 -8 526 -110
974 -100 1433 32 58 17 114 33 125 36 29 7 102 -2 124 -15z m1063 -91 c-6 -6
-7 0 -4 19 5 21 7 23 10 9 2 -10 0 -22 -6 -28z m-61 -1052 c-62 -122 -271
-404 -290 -392 -4 3 -23 -11 -42 -32 l-34 -37 38 34 c20 19 37 30 37 25 0 -16
-66 -75 -74 -67 -4 5 -6 1 -4 -7 2 -8 -2 -14 -8 -13 -6 1 -31 -19 -55 -45
l-44 -47 48 45 c26 24 47 39 47 33 0 -14 -260 -263 -274 -263 -6 0 8 19 29 43
l40 42 -42 -39 c-23 -22 -40 -43 -37 -47 15 -26 -344 -271 -741 -507 -434
-257 -570 -337 -576 -340 -4 -2 -42 55 -84 125 -43 70 -119 188 -169 260 -186
271 -218 340 -230 493 -4 41 -9 102 -12 135 l-5 60 19 -30 c33 -53 131 -152
200 -203 156 -115 317 -171 517 -179 313 -13 543 79 937 375 286 215 541 448
735 673 l78 91 6 -69 6 -68 1 75 c0 108 3 115 14 31 l10 -74 -41 -81z m384
-76 c-34 -333 -257 -892 -532 -1332 l-54 -87 -32 14 c-18 8 -31 18 -30 22 1 4
43 71 95 148 164 246 314 567 422 905 44 135 96 359 96 410 0 23 0 23 21 4 19
-17 20 -26 14 -84z m115 -107 c0 -102 -73 -386 -157 -608 -80 -214 -263 -567
-359 -692 -25 -34 -28 -35 -73 -28 -25 4 -48 8 -49 10 -2 2 18 36 46 77 164
245 330 592 441 925 41 123 91 342 91 404 l1 34 29 -35 c25 -29 30 -43 30 -87z
m-3456 -204 c-54 -157 -135 -348 -238 -563 -69 -144 -75 -153 -106 -159 -86
-18 -86 -22 14 157 51 90 155 288 232 439 76 152 140 273 142 268 1 -4 -18
-68 -44 -142z m2470 -1974 c14 -14 36 -25 50 -25 30 0 51 -31 34 -48 -9 -9 -7
-15 8 -26 18 -14 18 -15 2 -21 -10 -4 -25 -4 -34 -1 -12 4 -15 2 -10 -9 4 -12
1 -12 -21 2 -19 13 -25 14 -18 4 6 -11 4 -13 -8 -8 -39 15 -11 -17 77 -87 l94
-75 -11 -42 c-9 -38 -11 -40 -24 -24 -7 11 -13 22 -13 27 0 4 -3 8 -7 8 -5 0
-15 -24 -25 -52 -16 -52 -16 -53 8 -98 32 -60 31 -95 -5 -131 -27 -27 -80 -42
-66 -19 3 6 11 10 17 10 23 0 58 44 58 71 0 35 -84 111 -143 129 -68 20 -98
39 -112 73 l-14 32 -1 -42 c0 -34 5 -45 28 -63 l27 -21 -35 6 c-48 9 -84 37
-88 69 -5 40 57 100 98 94 17 -3 30 -2 30 1 0 3 -17 22 -37 43 -35 35 -36 38
-20 56 23 25 21 30 -8 24 -37 -7 -31 16 11 35 32 16 34 19 18 30 -15 11 -14
13 11 23 18 7 25 15 21 25 -4 12 0 14 20 9 23 -6 25 -4 19 15 -7 24 -2 26 27
10 18 -10 20 -9 15 5 -9 22 -2 20 27 -9z m622 -61 c18 5 22 3 18 -9 -4 -11 3
-19 25 -26 37 -13 40 -24 9 -33 l-23 -6 25 -20 c14 -11 19 -20 11 -20 -11 0
-11 -3 -1 -15 10 -12 9 -15 -5 -15 -12 0 -15 -5 -10 -17 22 -52 15 -79 -12
-52 -8 8 -13 6 -17 -8 -4 -11 -18 -25 -33 -32 l-27 -12 41 -19 c43 -19 83 -77
83 -119 0 -23 -45 -41 -99 -40 -31 0 -33 2 -14 9 27 11 43 40 43 77 l-1 28
-13 -31 c-11 -25 -23 -33 -59 -43 -25 -6 -57 -11 -72 -11 -36 0 -135 -58 -148
-87 -15 -33 7 -72 53 -95 30 -15 32 -17 12 -18 -13 0 -37 13 -53 29 -41 41
-39 83 7 141 25 32 33 50 29 65 -4 11 -10 36 -13 55 l-7 34 -22 -28 c-27 -33
-36 -21 -31 40 3 37 5 39 95 84 100 49 129 70 99 70 -10 0 -14 5 -10 11 5 9
-3 10 -30 5 -27 -5 -36 -4 -36 7 0 7 3 17 7 21 4 4 8 17 8 29 0 17 9 25 45 35
25 7 56 19 70 27 22 12 25 12 28 -1 3 -11 11 -14 28 -10z m-819 -206 c-21 -18
-43 -50 -50 -71 l-13 -39 -14 26 c-12 24 -11 28 11 52 25 28 78 64 93 64 5 0
-7 -15 -27 -32z m912 -114 c32 -44 38 -84 14 -92 -8 -2 -13 6 -13 23 0 30 -21
75 -44 94 -9 8 -16 17 -16 22 0 18 29 -4 59 -47z"/>
<path d="M4562 8490 c0 -14 2 -19 5 -12 2 6 2 18 0 25 -3 6 -5 1 -5 -13z"/>
<path d="M4562 8435 c0 -16 2 -22 5 -12 2 9 2 23 0 30 -3 6 -5 -1 -5 -18z"/>
<path d="M4561 8374 c0 -11 3 -14 6 -6 3 7 2 16 -1 19 -3 4 -6 -2 -5 -13z"/>
<path d="M4571 8314 c0 -11 3 -14 6 -6 3 7 2 16 -1 19 -3 4 -6 -2 -5 -13z"/>
<path d="M4982 8290 c0 -14 2 -19 5 -12 2 6 2 18 0 25 -3 6 -5 1 -5 -13z"/>
<path d="M4787 8049 c7 -7 15 -10 18 -7 3 3 -2 9 -12 12 -14 6 -15 5 -6 -5z"/>
<path d="M5775 8042 c11 -13 29 -28 40 -34 21 -11 18 -8 -30 32 -29 24 -29 24
-10 2z"/>
<path d="M3618 8043 c12 -2 30 -2 40 0 9 3 -1 5 -23 4 -22 0 -30 -2 -17 -4z"/>
<path d="M3488 8033 c6 -2 18 -2 25 0 6 3 1 5 -13 5 -14 0 -19 -2 -12 -5z"/>
<path d="M4848 8023 c6 -2 18 -2 25 0 6 3 1 5 -13 5 -14 0 -19 -2 -12 -5z"/>
<path d="M4788 8013 c7 -3 16 -2 19 1 4 3 -2 6 -13 5 -11 0 -14 -3 -6 -6z"/>
<path d="M4850 7999 c-47 -3 -97 -11 -111 -16 -81 -34 -124 -113 -124 -228 1
-62 4 -75 29 -108 30 -39 131 -94 189 -103 32 -5 276 38 412 73 55 14 108 17
250 16 170 -1 184 -2 255 -28 89 -32 167 -75 204 -111 l26 -27 0 26 c0 35 -40
143 -74 201 -96 164 -309 267 -610 295 -139 13 -335 18 -446 10z"/>
<path d="M5308 8003 c6 -2 18 -2 25 0 6 3 1 5 -13 5 -14 0 -19 -2 -12 -5z"/>
<path d="M3203 7955 c0 -7 6 -11 14 -8 7 3 13 6 13 8 0 2 -6 5 -13 8 -8 3 -14
-1 -14 -8z"/>
<path d="M4574 7903 c-9 -21 -18 -72 -21 -113 -4 -63 -1 -80 16 -107 26 -41
46 -44 37 -5 -13 61 -18 160 -8 210 11 61 -1 68 -24 15z"/>
<path d="M4620 7899 c-7 -11 -10 -23 -7 -25 2 -2 9 7 15 21 14 30 7 33 -8 4z"/>
<path d="M2970 7873 c0 -10 4 -14 8 -8 4 6 11 13 16 18 5 4 2 7 -7 7 -10 0
-17 -8 -17 -17z"/>
<path d="M2962 7810 c0 -14 2 -19 5 -12 2 6 2 18 0 25 -3 6 -5 1 -5 -13z"/>
<path d="M2953 7705 c0 -22 2 -30 4 -17 2 12 2 30 0 40 -3 9 -5 -1 -4 -23z"/>
<path d="M4012 7690 c0 -14 2 -19 5 -12 2 6 2 18 0 25 -3 6 -5 1 -5 -13z"/>
<path d="M5926 7687 c3 -10 9 -15 12 -12 3 3 0 11 -7 18 -10 9 -11 8 -5 -6z"/>
<path d="M5991 7514 c0 -11 3 -14 6 -6 3 7 2 16 -1 19 -3 4 -6 -2 -5 -13z"/>
<path d="M2944 7435 c0 -49 1 -71 3 -48 2 23 2 64 0 90 -2 26 -3 8 -3 -42z"/>
<path d="M5127 7489 c-103 -24 -205 -107 -254 -207 -24 -49 -28 -71 -31 -161
-4 -113 12 -135 20 -29 10 123 101 244 216 289 64 25 212 31 247 11 19 -11 19
-11 -3 -12 -37 0 -97 -36 -136 -81 -51 -60 -76 -134 -76 -224 0 -263 232 -391
384 -214 55 65 80 138 79 239 0 92 -18 158 -55 197 -43 46 -10 31 48 -21 75
-67 114 -142 121 -228 8 -99 -9 -143 -81 -214 -93 -92 -143 -109 -321 -109
-119 0 -149 3 -197 22 -115 43 -183 110 -219 216 -10 29 -18 43 -19 31 0 -38
60 -142 106 -183 117 -103 357 -136 527 -71 73 27 149 87 181 142 41 72 69
182 63 248 -14 163 -155 305 -352 355 -64 16 -187 18 -248 4z m373 -229 c24
-24 25 -48 4 -78 -31 -44 -104 -20 -104 35 0 57 61 82 100 43z"/>
<path d="M3410 7471 c-216 -71 -314 -311 -213 -521 15 -30 29 -59 32 -65 2 -5
-4 -3 -15 5 -17 12 -17 12 -6 0 7 -8 16 -15 20 -15 4 0 28 -21 54 -47 81 -81
175 -118 309 -119 168 -1 273 65 341 216 18 42 22 68 23 160 0 102 -2 114 -29
168 -38 75 -119 150 -203 189 -61 29 -78 32 -178 35 -60 1 -121 -1 -135 -6z
m215 -90 c33 -6 36 -9 20 -15 -11 -5 -32 -13 -48 -18 -45 -17 -112 -100 -132
-163 -23 -75 -17 -190 15 -262 45 -105 145 -166 233 -142 56 14 128 89 151
155 24 68 31 172 17 229 -7 26 -10 49 -8 52 3 2 19 -24 36 -58 58 -116 37
-239 -59 -342 -55 -61 -124 -89 -229 -95 -173 -10 -299 47 -369 167 -25 42
-27 55 -26 146 0 117 22 186 80 254 71 82 191 117 319 92z m183 -137 c46 -32
17 -114 -40 -114 -23 0 -58 39 -58 64 0 24 38 66 60 66 8 0 26 -7 38 -16z"/>
<path d="M3860 7365 c13 -14 26 -25 28 -25 3 0 -5 11 -18 25 -13 14 -26 25
-28 25 -3 0 5 -11 18 -25z"/>
<path d="M6301 7364 c0 -11 3 -14 6 -6 3 7 2 16 -1 19 -3 4 -6 -2 -5 -13z"/>
<path d="M6293 7105 c0 -27 2 -38 4 -22 2 15 2 37 0 50 -2 12 -4 0 -4 -28z"/>
<path d="M4041 7114 c0 -11 3 -14 6 -6 3 7 2 16 -1 19 -3 4 -6 -2 -5 -13z"/>
<path d="M4121 7044 c0 -11 3 -14 6 -6 3 7 2 16 -1 19 -3 4 -6 -2 -5 -13z"/>
<path d="M6282 6975 c0 -16 2 -22 5 -12 2 9 2 23 0 30 -3 6 -5 -1 -5 -18z"/>
<path d="M2931 6944 c0 -11 3 -14 6 -6 3 7 2 16 -1 19 -3 4 -6 -2 -5 -13z"/>
<path d="M2932 6900 c0 -14 2 -19 5 -12 2 6 2 18 0 25 -3 6 -5 1 -5 -13z"/>
<path d="M6272 6860 c0 -19 2 -27 5 -17 2 9 2 25 0 35 -3 9 -5 1 -5 -18z"/>
<path d="M2932 6840 c0 -19 2 -27 5 -17 2 9 2 25 0 35 -3 9 -5 1 -5 -18z"/>
<path d="M2931 6784 c0 -11 3 -14 6 -6 3 7 2 16 -1 19 -3 4 -6 -2 -5 -13z"/>
<path d="M6262 6760 c0 -19 2 -27 5 -17 2 9 2 25 0 35 -3 9 -5 1 -5 -18z"/>
<path d="M2933 6725 c0 -22 2 -30 4 -17 2 12 2 30 0 40 -3 9 -5 -1 -4 -23z"/>
<path d="M6242 6610 c0 -14 2 -19 5 -12 2 6 2 18 0 25 -3 6 -5 1 -5 -13z"/>
<path d="M3761 6344 c0 -11 3 -14 6 -6 3 7 2 16 -1 19 -3 4 -6 -2 -5 -13z"/>
<path d="M4562 6280 c0 -14 2 -19 5 -12 2 6 2 18 0 25 -3 6 -5 1 -5 -13z"/>
<path d="M2933 6235 c0 -22 2 -30 4 -17 2 12 2 30 0 40 -3 9 -5 -1 -4 -23z"/>
<path d="M2941 6154 c0 -11 3 -14 6 -6 3 7 2 16 -1 19 -3 4 -6 -2 -5 -13z"/>
<path d="M5228 6133 c6 -2 18 -2 25 0 6 3 1 5 -13 5 -14 0 -19 -2 -12 -5z"/>
<path d="M3753 6123 c9 -2 23 -2 30 0 6 3 -1 5 -18 5 -16 0 -22 -2 -12 -5z"/>
<path d="M3838 6113 c6 -2 18 -2 25 0 6 3 1 5 -13 5 -14 0 -19 -2 -12 -5z"/>
<path d="M4678 6113 c6 -2 18 -2 25 0 6 3 1 5 -13 5 -14 0 -19 -2 -12 -5z"/>
<path d="M2951 6084 c0 -11 3 -14 6 -6 3 7 2 16 -1 19 -3 4 -6 -2 -5 -13z"/>
<path d="M2981 5974 c0 -11 3 -14 6 -6 3 7 2 16 -1 19 -3 4 -6 -2 -5 -13z"/>
<path d="M3291 5834 c0 -11 3 -14 6 -6 3 7 2 16 -1 19 -3 4 -6 -2 -5 -13z"/>
<path d="M5921 5801 c-8 -5 -9 -11 -3 -15 5 -3 12 1 16 9 6 17 6 18 -13 6z"/>
<path d="M5591 5714 c0 -11 3 -14 6 -6 3 7 2 16 -1 19 -3 4 -6 -2 -5 -13z"/>
<path d="M3277 5637 c-3 -8 -1 -20 4 -28 6 -10 9 -7 9 14 0 29 -5 35 -13 14z"/>
<path d="M5571 5534 c0 -11 3 -14 6 -6 3 7 2 16 -1 19 -3 4 -6 -2 -5 -13z"/>
<path d="M6848 7213 c7 -3 16 -2 19 1 4 3 -2 6 -13 5 -11 0 -14 -3 -6 -6z"/>
<path d="M6938 7213 c7 -3 16 -2 19 1 4 3 -2 6 -13 5 -11 0 -14 -3 -6 -6z"/>
<path d="M6744 7174 c-18 -14 -18 -15 4 -4 12 6 22 13 22 15 0 8 -5 6 -26 -11z"/>
<path d="M7145 7066 c10 -14 19 -26 22 -26 7 0 -17 39 -28 46 -6 3 -3 -5 6
-20z"/>
<path d="M6948 7043 c7 -3 16 -2 19 1 4 3 -2 6 -13 5 -11 0 -14 -3 -6 -6z"/>
<path d="M6888 7014 c-26 -8 -50 -19 -53 -24 -3 -6 -11 -10 -16 -10 -6 0 -7 5
-3 12 5 7 3 8 -5 4 -7 -5 -10 -10 -7 -13 3 -3 -15 -29 -41 -57 -93 -103 -129
-206 -177 -511 -21 -132 -21 -158 5 -181 32 -29 120 -24 185 9 28 14 55 23 58
19 4 -3 4 1 1 10 -4 10 5 23 26 39 69 51 149 141 178 202 61 123 90 324 60
404 -15 42 -68 92 -109 103 -43 12 -44 12 -102 -6z"/>
<path d="M7040 7017 c0 -2 15 -16 33 -33 l32 -29 -29 33 c-28 30 -36 37 -36
29z"/>
<path d="M7180 7005 c0 -5 5 -17 10 -25 5 -8 10 -10 10 -5 0 6 -5 17 -10 25
-5 8 -10 11 -10 5z"/>
<path d="M7201 6950 c0 -8 4 -24 9 -35 5 -13 9 -14 9 -5 0 8 -4 24 -9 35 -5
13 -9 14 -9 5z"/>
<path d="M7122 6890 c0 -14 2 -19 5 -12 2 6 2 18 0 25 -3 6 -5 1 -5 -13z"/>
<path d="M7222 6850 c0 -19 2 -27 5 -17 2 9 2 25 0 35 -3 9 -5 1 -5 -18z"/>
<path d="M6655 6799 c-4 -6 -5 -12 -2 -15 2 -3 7 2 10 11 7 17 1 20 -8 4z"/>
<path d="M6541 6764 c0 -11 3 -14 6 -6 3 7 2 16 -1 19 -3 4 -6 -2 -5 -13z"/>
<path d="M7231 6754 c0 -11 3 -14 6 -6 3 7 2 16 -1 19 -3 4 -6 -2 -5 -13z"/>
<path d="M6531 6704 c0 -11 3 -14 6 -6 3 7 2 16 -1 19 -3 4 -6 -2 -5 -13z"/>
<path d="M6611 6684 c0 -11 3 -14 6 -6 3 7 2 16 -1 19 -3 4 -6 -2 -5 -13z"/>
<path d="M7222 6665 c0 -16 2 -22 5 -12 2 9 2 23 0 30 -3 6 -5 -1 -5 -18z"/>
<path d="M6521 6624 c0 -11 3 -14 6 -6 3 7 2 16 -1 19 -3 4 -6 -2 -5 -13z"/>
<path d="M7211 6604 c0 -11 3 -14 6 -6 3 7 2 16 -1 19 -3 4 -6 -2 -5 -13z"/>
<path d="M6592 6590 c0 -14 2 -19 5 -12 2 6 2 18 0 25 -3 6 -5 1 -5 -13z"/>
<path d="M6512 6570 c0 -14 2 -19 5 -12 2 6 2 18 0 25 -3 6 -5 1 -5 -13z"/>
<path d="M7201 6564 c0 -11 3 -14 6 -6 3 7 2 16 -1 19 -3 4 -6 -2 -5 -13z"/>
<path d="M6582 6520 c0 -14 2 -19 5 -12 2 6 2 18 0 25 -3 6 -5 1 -5 -13z"/>
<path d="M6501 6504 c0 -11 3 -14 6 -6 3 7 2 16 -1 19 -3 4 -6 -2 -5 -13z"/>
<path d="M6572 6455 c0 -16 2 -22 5 -12 2 9 2 23 0 30 -3 6 -5 -1 -5 -18z"/>
<path d="M6491 6444 c0 -11 3 -14 6 -6 3 7 2 16 -1 19 -3 4 -6 -2 -5 -13z"/>
<path d="M7156 6435 c-9 -26 -7 -32 5 -12 6 10 9 21 6 23 -2 3 -7 -2 -11 -11z"/>
<path d="M7125 6370 c-9 -16 -13 -30 -11 -30 3 0 12 14 21 30 9 17 13 30 11
30 -3 0 -12 -13 -21 -30z"/>
<path d="M6451 6194 c0 -11 3 -14 6 -6 3 7 2 16 -1 19 -3 4 -6 -2 -5 -13z"/>
<path d="M6989 6173 l-24 -28 28 24 c15 14 27 26 27 28 0 8 -8 1 -31 -24z"/>
<path d="M6929 6113 l-24 -28 28 24 c25 23 32 31 24 31 -2 0 -14 -12 -28 -27z"/>
<path d="M6826 6039 c-73 -48 -84 -59 -30 -29 39 21 105 70 94 69 -3 0 -32
-18 -64 -40z"/>
<path d="M6710 5980 c-8 -5 -10 -10 -5 -10 6 0 17 5 25 10 8 5 11 10 5 10 -5
0 -17 -5 -25 -10z"/>
<path d="M6533 5953 c9 -2 23 -2 30 0 6 3 -1 5 -18 5 -16 0 -22 -2 -12 -5z"/>
<path d="M6603 5953 c9 -2 23 -2 30 0 6 3 -1 5 -18 5 -16 0 -22 -2 -12 -5z"/>
<path d="M5008 5893 c7 -3 16 -2 19 1 4 3 -2 6 -13 5 -11 0 -14 -3 -6 -6z"/>
<path d="M4968 5883 c7 -3 16 -2 19 1 4 3 -2 6 -13 5 -11 0 -14 -3 -6 -6z"/>
<path d="M5171 5856 c-114 -95 -366 -162 -702 -186 -170 -13 -357 -3 -496 26
-116 24 -253 70 -297 100 -74 50 -160 27 -108 -29 93 -99 369 -159 727 -160
221 0 348 12 532 48 263 53 489 165 443 220 -20 24 -55 17 -99 -19z"/>
<path d="M4648 5823 c7 -3 16 -2 19 1 4 3 -2 6 -13 5 -11 0 -14 -3 -6 -6z"/>
<path d="M4553 5813 c9 -2 23 -2 30 0 6 3 -1 5 -18 5 -16 0 -22 -2 -12 -5z"/>
<path d="M4368 5803 c18 -2 45 -2 60 0 15 2 0 4 -33 4 -33 0 -45 -2 -27 -4z"/>
<path d="M4898 5753 c7 -3 16 -2 19 1 4 3 -2 6 -13 5 -11 0 -14 -3 -6 -6z"/>
<path d="M4858 5743 c7 -3 16 -2 19 1 4 3 -2 6 -13 5 -11 0 -14 -3 -6 -6z"/>
<path d="M4708 5713 c7 -3 16 -2 19 1 4 3 -2 6 -13 5 -11 0 -14 -3 -6 -6z"/>
<path d="M3482 5620 c0 -14 2 -19 5 -12 2 6 2 18 0 25 -3 6 -5 1 -5 -13z"/>
<path d="M4758 5623 c7 -3 16 -2 19 1 4 3 -2 6 -13 5 -11 0 -14 -3 -6 -6z"/>
<path d="M4698 5613 c7 -3 16 -2 19 1 4 3 -2 6 -13 5 -11 0 -14 -3 -6 -6z"/>
<path d="M4618 5603 c7 -3 16 -2 19 1 4 3 -2 6 -13 5 -11 0 -14 -3 -6 -6z"/>
<path d="M4058 5593 c7 -3 16 -2 19 1 4 3 -2 6 -13 5 -11 0 -14 -3 -6 -6z"/>
<path d="M4218 5583 c18 -2 45 -2 60 0 15 2 0 4 -33 4 -33 0 -45 -2 -27 -4z"/>
<path d="M4338 5583 c7 -3 16 -2 19 1 4 3 -2 6 -13 5 -11 0 -14 -3 -6 -6z"/>
<path d="M4613 5433 c9 -2 23 -2 30 0 6 3 -1 5 -18 5 -16 0 -22 -2 -12 -5z"/>
<path d="M4558 5423 c7 -3 16 -2 19 1 4 3 -2 6 -13 5 -11 0 -14 -3 -6 -6z"/>
<path d="M4488 5413 c6 -2 18 -2 25 0 6 3 1 5 -13 5 -14 0 -19 -2 -12 -5z"/>
<path d="M4168 5403 c6 -2 18 -2 25 0 6 3 1 5 -13 5 -14 0 -19 -2 -12 -5z"/>
<path d="M4408 5403 c6 -2 18 -2 25 0 6 3 1 5 -13 5 -14 0 -19 -2 -12 -5z"/>
<path d="M5189 5293 c-13 -16 -12 -17 4 -4 9 7 17 15 17 17 0 8 -8 3 -21 -13z"/>
<path d="M5149 5243 c-13 -16 -12 -17 4 -4 9 7 17 15 17 17 0 8 -8 3 -21 -13z"/>
<path d="M4080 5196 c0 -2 8 -10 18 -17 15 -13 16 -12 3 4 -13 16 -21 21 -21
13z"/>
<path d="M4501 5134 c0 -11 3 -14 6 -6 3 7 2 16 -1 19 -3 4 -6 -2 -5 -13z"/>
<path d="M5009 5113 c-13 -16 -12 -17 4 -4 9 7 17 15 17 17 0 8 -8 3 -21 -13z"/>
<path d="M3760 5116 c0 -2 8 -10 18 -17 15 -13 16 -12 3 4 -13 16 -21 21 -21
13z"/>
<path d="M4059 5083 c-13 -16 -12 -17 4 -4 9 7 17 15 17 17 0 8 -8 3 -21 -13z"/>
<path d="M6305 4839 c-4 -6 -5 -12 -2 -15 2 -3 7 2 10 11 7 17 1 20 -8 4z"/>
<path d="M6278 4788 c-8 -13 -24 -41 -37 -63 -26 -47 3 -10 37 47 24 40 24 54
0 16z"/>
<path d="M6179 4633 c-13 -16 -12 -17 4 -4 16 13 21 21 13 21 -2 0 -10 -8 -17
-17z"/>
<path d="M6149 4593 c-13 -16 -12 -17 4 -4 9 7 17 15 17 17 0 8 -8 3 -21 -13z"/>
<path d="M6119 4553 c-13 -16 -12 -17 4 -4 16 13 21 21 13 21 -2 0 -10 -8 -17
-17z"/>
<path d="M6089 4513 c-13 -16 -12 -17 4 -4 9 7 17 15 17 17 0 8 -8 3 -21 -13z"/>
<path d="M6039 4453 l-24 -28 28 24 c25 23 32 31 24 31 -2 0 -14 -12 -28 -27z"/>
<path d="M5780 4175 c-24 -25 -42 -45 -39 -45 3 0 25 20 49 45 24 25 42 45 39
45 -3 0 -25 -20 -49 -45z"/>
<path d="M3853 4140 c0 -25 2 -35 4 -22 2 12 2 32 0 45 -2 12 -4 2 -4 -23z"/>
<path d="M3862 4050 c0 -19 2 -27 5 -17 2 9 2 25 0 35 -3 9 -5 1 -5 -18z"/>
<path d="M5604 4018 l-19 -23 23 19 c12 11 22 21 22 23 0 8 -8 2 -26 -19z"/>
<path d="M3872 3990 c0 -14 2 -19 5 -12 2 6 2 18 0 25 -3 6 -5 1 -5 -13z"/>
<path d="M5505 3944 c-33 -25 -64 -50 -70 -56 -12 -14 69 43 110 77 50 41 24
27 -40 -21z"/>
<path d="M3881 3944 c0 -11 3 -14 6 -6 3 7 2 16 -1 19 -3 4 -6 -2 -5 -13z"/>
<path d="M3900 3885 c0 -5 5 -17 10 -25 5 -8 10 -10 10 -5 0 6 -5 17 -10 25
-5 8 -10 11 -10 5z"/>
<path d="M5399 3863 c-13 -16 -12 -17 4 -4 9 7 17 15 17 17 0 8 -8 3 -21 -13z"/>
<path d="M5306 3805 c-27 -18 -54 -39 -60 -46 -6 -6 17 7 52 30 34 23 62 44
62 46 0 7 -1 7 -54 -30z"/>
<path d="M3980 3741 c5 -11 15 -23 21 -27 6 -3 3 5 -6 20 -20 30 -30 35 -15 7z"/>
<path d="M4046 3650 c45 -66 63 -87 40 -45 -10 17 -31 46 -48 65 -24 28 -23
24 8 -20z"/>
<path d="M5054 3644 c-18 -14 -18 -15 4 -4 12 6 22 13 22 15 0 8 -5 6 -26 -11z"/>
<path d="M4908 3560 c-20 -11 -39 -24 -43 -29 -3 -6 15 2 40 15 25 14 45 28
45 30 0 6 -1 5 -42 -16z"/>
<path d="M4830 3510 c-9 -6 -10 -10 -3 -10 6 0 15 5 18 10 8 12 4 12 -15 0z"/>
<path d="M4190 3430 c6 -11 13 -20 16 -20 2 0 0 9 -6 20 -6 11 -13 20 -16 20
-2 0 0 -9 6 -20z"/>
<path d="M4597 3376 c-48 -29 -61 -43 -22 -23 31 16 74 46 65 46 -3 0 -22 -10
-43 -23z"/>
<path d="M4270 3300 c6 -11 13 -20 16 -20 2 0 0 9 -6 20 -6 11 -13 20 -16 20
-2 0 0 -9 6 -20z"/>
<path d="M4408 3264 c-38 -20 -36 -28 2 -9 17 9 30 18 30 20 0 7 -1 6 -32 -11z"/>
</g>
</svg>
